<svg width="20" height="20" viewBox="0 0 20 20" fill="none" xmlns="http://www.w3.org/2000/svg">
<g clip-path="url(#clip0_3_23)">
<path d="M9.99994 0C4.47708 0 -6.10352e-05 4.47714 -6.10352e-05 10C-6.10352e-05 15.5229 4.47708 20 9.99994 20C15.5228 20 19.9999 15.5229 19.9999 10C19.9999 4.47714 15.5228 0 9.99994 0ZM14.6351 6.80081C14.4846 8.38206 13.8334 12.2193 13.502 13.9903C13.3619 14.7397 13.0858 14.991 12.8186 15.0155C12.238 15.069 11.797 14.6318 11.2345 14.2631C10.3544 13.6861 9.85716 13.327 9.0028 12.764C8.0155 12.1134 8.65554 11.7559 9.21821 11.1712C9.36546 11.0183 11.9241 8.69101 11.9736 8.47988C11.9798 8.45347 11.9857 8.35488 11.9271 8.3031C11.8685 8.25133 11.7824 8.26887 11.7201 8.28294C11.6318 8.303 10.2258 9.23232 7.50199 11.0709C7.10294 11.345 6.74146 11.4785 6.41756 11.4715C6.0605 11.4638 5.37369 11.2696 4.86308 11.1036C4.23683 10.9001 3.73909 10.7925 3.78244 10.4467C3.80502 10.2666 4.053 10.0825 4.52639 9.89431C7.44161 8.62421 9.38553 7.78684 10.3582 7.38222C13.1353 6.2271 13.7123 6.02645 14.0884 6.01976C14.1712 6.01839 14.3561 6.03887 14.4759 6.13609C14.5556 6.20534 14.6064 6.30198 14.6183 6.4069C14.6386 6.53716 14.6442 6.66929 14.6351 6.80081V6.80081Z" fill="white"/>
</g>
<defs>
<clipPath id="clip0_3_23">
<rect width="20" height="20" fill="white"/>
</clipPath>
</defs>
</svg>
