<svg width="20" height="21" viewBox="0 0 20 21" fill="none" xmlns="http://www.w3.org/2000/svg">
<path d="M16.3915 4.50487C16.3864 4.49498 16.378 4.48722 16.3677 4.483C15.1763 3.93639 13.9191 3.54662 12.6275 3.32344C12.6157 3.32125 12.6036 3.32283 12.5928 3.32793C12.582 3.33304 12.5731 3.34142 12.5674 3.35187C12.3962 3.66259 12.2408 3.98174 12.1017 4.30812C10.7095 4.09677 9.29323 4.09677 7.90094 4.30812C7.76099 3.98092 7.60309 3.66168 7.42797 3.35187C7.42196 3.34164 7.41301 3.33346 7.40229 3.32839C7.39156 3.32331 7.37956 3.32159 7.36784 3.32344C6.07608 3.54615 4.81879 3.93595 3.62759 4.48303C3.61739 4.48735 3.60879 4.49473 3.60297 4.50415C1.22081 8.06159 0.568247 11.5316 0.888372 14.9586C0.889273 14.967 0.891853 14.9751 0.89596 14.9825C0.900067 14.9899 0.905616 14.9963 0.912278 15.0015C2.29939 16.0286 3.85088 16.8125 5.50056 17.3199C5.51218 17.3234 5.52458 17.3233 5.53611 17.3195C5.54763 17.3157 5.55773 17.3085 5.56503 17.2988C5.91934 16.8167 6.23329 16.3062 6.50369 15.7725C6.5074 15.7652 6.50952 15.7571 6.50991 15.7489C6.5103 15.7407 6.50894 15.7325 6.50593 15.7249C6.50292 15.7173 6.49833 15.7103 6.49245 15.7046C6.48658 15.6989 6.47955 15.6944 6.47184 15.6916C5.97677 15.5022 5.49747 15.2738 5.03847 15.0087C5.03013 15.0038 5.02313 14.9969 5.01808 14.9887C5.01303 14.9804 5.01009 14.9711 5.00952 14.9614C5.00894 14.9518 5.01076 14.9421 5.0148 14.9333C5.01884 14.9245 5.02498 14.9169 5.03269 14.911C5.129 14.8389 5.22537 14.7638 5.31734 14.688C5.32551 14.6813 5.3354 14.677 5.34589 14.6755C5.35638 14.6741 5.36706 14.6757 5.37672 14.68C8.38387 16.0524 11.6395 16.0524 14.6111 14.68C14.6208 14.6754 14.6316 14.6736 14.6422 14.6749C14.6529 14.6762 14.6629 14.6805 14.6712 14.6873C14.7632 14.7631 14.8596 14.8389 14.9566 14.911C14.9643 14.9168 14.9705 14.9244 14.9746 14.9332C14.9787 14.9419 14.9806 14.9516 14.9801 14.9612C14.9796 14.9709 14.9768 14.9803 14.9718 14.9885C14.9668 14.9968 14.9598 15.0038 14.9515 15.0087C14.4936 15.2761 14.0138 15.5043 13.5175 15.6909C13.5098 15.6938 13.5028 15.6984 13.4969 15.7042C13.4911 15.71 13.4865 15.717 13.4836 15.7247C13.4806 15.7324 13.4793 15.7407 13.4798 15.7489C13.4803 15.7571 13.4824 15.7652 13.4862 15.7725C13.7611 16.3032 14.0746 16.8131 14.4242 17.298C14.4312 17.3079 14.4413 17.3154 14.4529 17.3193C14.4644 17.3232 14.4769 17.3234 14.4886 17.3198C16.1413 16.8142 17.6955 16.0301 19.0843 15.0015C19.0911 14.9966 19.0967 14.9903 19.1008 14.983C19.105 14.9757 19.1075 14.9676 19.1082 14.9593C19.4915 10.9973 18.4666 7.55578 16.3915 4.50487ZM6.95278 12.8719C6.0474 12.8719 5.3014 12.041 5.3014 11.0207C5.3014 10.0003 6.03294 9.16937 6.95278 9.16937C7.87981 9.16937 8.61859 10.0075 8.60412 11.0206C8.60412 12.041 7.87256 12.8719 6.95278 12.8719ZM13.0584 12.8719C12.1531 12.8719 11.4071 12.041 11.4071 11.0207C11.4071 10.0003 12.1386 9.16937 13.0584 9.16937C13.9855 9.16937 14.7242 10.0075 14.7098 11.0206C14.7098 12.041 13.9855 12.8719 13.0584 12.8719Z" fill="white"/>
</svg>
