<svg width="20" height="20" viewBox="0 0 20 20" fill="none" xmlns="http://www.w3.org/2000/svg">
<g clip-path="url(#clip0_3_51)">
<path d="M10 20C15.5228 20 20 15.5229 20 10C20 9.87667 19.9978 9.75387 19.9933 9.63162C19.0067 10.9775 16.2539 13.8762 12.377 15.6557C7.74623 17.7814 5.36532 18.0086 4.45291 18.0957C4.38017 18.1026 4.31676 18.1087 4.2623 18.1148C4.22553 18.1188 4.1856 18.1157 4.14289 18.1061C5.78907 19.2976 7.81251 20 10 20Z" fill="white"/>
<path d="M1.64255 15.4932C0.604228 13.9167 0 12.0289 0 10C0 4.47715 4.47715 0 10 0C14.4901 0 18.2891 2.95933 19.5528 7.03398C19.4848 7.5726 19.3629 8.10932 18.6066 8.93443C17.8852 9.72131 16.3934 10.9016 15.7377 11.3934V5.2459C15.7377 4.88374 15.4441 4.59016 15.082 4.59016H13.3673C13.0026 4.59016 12.7079 4.88628 12.7113 5.251C12.7375 8.09192 12.7655 12.7477 12.7049 12.8689C12.6393 13 11.9126 13.4153 11.5574 13.6066V7.37705C11.5574 7.01489 11.2638 6.72131 10.9016 6.72131H9.18774C8.8227 6.72131 8.52795 7.01821 8.53165 7.38323C8.55761 9.94599 8.58465 14.0821 8.52459 14.2623C8.45902 14.459 7.73224 14.7814 7.37705 14.918V9.42623C7.37705 9.06407 7.08347 8.77049 6.72131 8.77049H4.91803C4.55588 8.77049 4.2623 9.06407 4.2623 9.42623V14.7541C4.28962 15 4.14754 15.5246 3.36066 15.6557C2.57717 15.7863 1.89119 15.6027 1.64255 15.4932Z" fill="white"/>
</g>
<defs>
<clipPath id="clip0_3_51">
<rect width="20" height="20" fill="white"/>
</clipPath>
</defs>
</svg>
