<svg width="20" height="20" viewBox="0 0 20 20" fill="none" xmlns="http://www.w3.org/2000/svg">
<path d="M5.61538 2.04545L9.76923 0L13.9231 2.04545L11.1538 3.63636L9.76923 2.95455L8.38462 3.63636L5.61538 2.04545Z" fill="white"/>
<path d="M5.61538 17.9545L9.76923 20L13.9231 17.9545L11.1538 16.3636L9.76923 17.0455L8.38462 16.3636L5.61538 17.9545Z" fill="white"/>
<path d="M1 4.31818V10L3.76923 8.63636V5.90909L6.76923 7.5L9.53846 6.13636L3.53846 2.95455L1 4.31818Z" fill="white"/>
<path d="M18.7692 15.4545V9.77273L16 11.1364V13.8636L13 12.2727L10.2308 13.6364L16.2308 16.8182L18.7692 15.4545Z" fill="white"/>
<path d="M3.30769 16.8182L6.07692 15.2273L4.23077 14.0909L19 7.27273V4.54545L16.6923 3.18182L13.9231 4.54545L15.5385 5.68182L1 12.2727V15.4545L3.30769 16.8182Z" fill="white"/>
</svg>
