<svg width="20" height="21" viewBox="0 0 20 21" fill="none" xmlns="http://www.w3.org/2000/svg">
<path d="M17.9441 6.24892C17.9568 6.42657 17.9568 6.60427 17.9568 6.78192C17.9568 12.2007 13.8325 18.4443 6.29441 18.4443C3.97207 18.4443 1.81473 17.7717 0 16.6043C0.329961 16.6423 0.647187 16.655 0.989844 16.655C2.90605 16.655 4.67004 16.0078 6.07867 14.9038C4.27664 14.8657 2.76648 13.6855 2.24617 12.0611C2.5 12.0992 2.75379 12.1245 3.02031 12.1245C3.38832 12.1245 3.75637 12.0738 4.09898 11.985C2.22082 11.6042 0.812148 9.9545 0.812148 7.96212V7.91138C1.35781 8.21595 1.99238 8.4063 2.66492 8.43165C1.56086 7.6956 0.837539 6.43927 0.837539 5.01794C0.837539 4.25653 1.04055 3.55857 1.3959 2.94943C3.41367 5.43673 6.44668 7.06107 9.84766 7.23876C9.78422 6.93419 9.74613 6.61696 9.74613 6.2997C9.74613 4.04079 11.5736 2.20071 13.8451 2.20071C15.0253 2.20071 16.0913 2.69564 16.84 3.49513C17.7664 3.31747 18.6547 2.97482 19.4416 2.50528C19.137 3.45708 18.4898 4.25657 17.6395 4.76415C18.4644 4.67536 19.2639 4.44689 19.9999 4.12966C19.4416 4.94181 18.7436 5.66513 17.9441 6.24892V6.24892Z" fill="white"/>
</svg>
